solid soap-dish
facet normal -0.0 0.9999999999999999 0.0
  outer loop
    vertex 95.15076286525372 92.17334836719623 91.99999999999997
    vertex 105.9507628652537 92.17334836719623 0.0
    vertex 95.15076286525372 92.17334836719623 0.0
  endloop
endfacet
facet normal -0.0 0.9999999999999999 0.0
  outer loop
    vertex 105.9507628652537 92.17334836719623 0.0
    vertex 95.15076286525372 92.17334836719623 91.99999999999997
    vertex 105.9507628652537 92.17334836719623 91.99999999999997
  endloop
endfacet
facet normal 0.9999999999999999 0.0 0.0
  outer loop
    vertex 105.9507628652537 92.17334836719623 0.0
    vertex 105.9507628652537 81.37334836719624 91.99999999999997
    vertex 105.9507628652537 81.37334836719624 0.0
  endloop
endfacet
facet normal 0.9999999999999999 0.0 0.0
  outer loop
    vertex 105.9507628652537 81.37334836719624 91.99999999999997
    vertex 105.9507628652537 92.17334836719623 0.0
    vertex 105.9507628652537 92.17334836719623 91.99999999999997
  endloop
endfacet
facet normal -1.0 0.0 0.0
  outer loop
    vertex 66.35076286525374 113.7733483671962 91.99999999999997
    vertex 66.35076286525374 106.57334836719623 0.0
    vertex 66.35076286525374 106.57334836719623 91.99999999999997
  endloop
endfacet
facet normal -1.0 0.0 0.0
  outer loop
    vertex 66.35076286525374 106.57334836719623 0.0
    vertex 66.35076286525374 113.7733483671962 91.99999999999997
    vertex 66.35076286525374 113.7733483671962 0.0
  endloop
endfacet
facet normal -0.0 1.0 0.0
  outer loop
    vertex 66.35076286525374 113.7733483671962 91.99999999999997
    vertex 84.35076286525376 113.7733483671962 0.0
    vertex 66.35076286525374 113.7733483671962 0.0
  endloop
endfacet
facet normal -0.0 1.0 0.0
  outer loop
    vertex 84.35076286525376 113.7733483671962 0.0
    vertex 66.35076286525374 113.7733483671962 91.99999999999997
    vertex 84.35076286525376 113.7733483671962 91.99999999999997
  endloop
endfacet
facet normal 0.9999999999999999 0.0 0.0
  outer loop
    vertex 95.15076286525372 102.97334836719622 0.0
    vertex 95.15076286525372 92.17334836719623 91.99999999999997
    vertex 95.15076286525372 92.17334836719623 0.0
  endloop
endfacet
facet normal 0.9999999999999999 0.0 0.0
  outer loop
    vertex 95.15076286525372 92.17334836719623 91.99999999999997
    vertex 95.15076286525372 102.97334836719622 0.0
    vertex 95.15076286525372 102.97334836719622 91.99999999999997
  endloop
endfacet
facet normal -0.0 -1.0 -0.0
  outer loop
    vertex 109.55076286525369 74.17334836719623 91.99999999999997
    vertex 98.7507628652537 74.17334836719623 0.0
    vertex 109.55076286525369 74.17334836719623 0.0
  endloop
endfacet
facet normal -0.0 -1.0 -0.0
  outer loop
    vertex 98.7507628652537 74.17334836719623 0.0
    vertex 109.55076286525369 74.17334836719623 91.99999999999997
    vertex 98.7507628652537 74.17334836719623 91.99999999999997
  endloop
endfacet
facet normal -0.9999999999999999 0.0 0.0
  outer loop
    vertex 98.7507628652537 84.9733483671962 91.99999999999997
    vertex 98.7507628652537 74.17334836719623 0.0
    vertex 98.7507628652537 74.17334836719623 91.99999999999997
  endloop
endfacet
facet normal -0.9999999999999999 0.0 0.0
  outer loop
    vertex 98.7507628652537 74.17334836719623 0.0
    vertex 98.7507628652537 84.9733483671962 91.99999999999997
    vertex 98.7507628652537 84.9733483671962 0.0
  endloop
endfacet
facet normal -0.0 1.0 0.0
  outer loop
    vertex 105.9507628652537 81.37334836719624 91.99999999999997
    vertex 116.75076286525369 81.37334836719624 0.0
    vertex 105.9507628652537 81.37334836719624 0.0
  endloop
endfacet
facet normal -0.0 1.0 0.0
  outer loop
    vertex 116.75076286525369 81.37334836719624 0.0
    vertex 105.9507628652537 81.37334836719624 91.99999999999997
    vertex 116.75076286525369 81.37334836719624 91.99999999999997
  endloop
endfacet
facet normal 1.0 0.0 0.0
  outer loop
    vertex 116.75076286525369 81.37334836719624 0.0
    vertex 116.75076286525369 63.37334836719622 91.99999999999997
    vertex 116.75076286525369 63.37334836719622 0.0
  endloop
endfacet
facet normal 1.0 0.0 0.0
  outer loop
    vertex 116.75076286525369 63.37334836719622 91.99999999999997
    vertex 116.75076286525369 81.37334836719624 0.0
    vertex 116.75076286525369 81.37334836719624 91.99999999999997
  endloop
endfacet
facet normal 1.0 0.0 0.0
  outer loop
    vertex 84.35076286525376 113.7733483671962 0.0
    vertex 84.35076286525376 102.97334836719622 91.99999999999997
    vertex 84.35076286525376 102.97334836719622 0.0
  endloop
endfacet
facet normal 1.0 0.0 0.0
  outer loop
    vertex 84.35076286525376 102.97334836719622 91.99999999999997
    vertex 84.35076286525376 113.7733483671962 0.0
    vertex 84.35076286525376 113.7733483671962 91.99999999999997
  endloop
endfacet
facet normal -0.0 0.9999999999999999 0.0
  outer loop
    vertex 84.35076286525376 102.97334836719622 91.99999999999997
    vertex 95.15076286525372 102.97334836719622 0.0
    vertex 84.35076286525376 102.97334836719622 0.0
  endloop
endfacet
facet normal -0.0 0.9999999999999999 0.0
  outer loop
    vertex 95.15076286525372 102.97334836719622 0.0
    vertex 84.35076286525376 102.97334836719622 91.99999999999997
    vertex 95.15076286525372 102.97334836719622 91.99999999999997
  endloop
endfacet
facet normal -0.0 -1.0 -0.0
  outer loop
    vertex 77.1507628652537 106.57334836719623 91.99999999999997
    vertex 66.35076286525374 106.57334836719623 0.0
    vertex 77.1507628652537 106.57334836719623 0.0
  endloop
endfacet
facet normal -0.0 -1.0 -0.0
  outer loop
    vertex 66.35076286525374 106.57334836719623 0.0
    vertex 77.1507628652537 106.57334836719623 91.99999999999997
    vertex 66.35076286525374 106.57334836719623 91.99999999999997
  endloop
endfacet
facet normal -0.0 -0.9999999999999999 -0.0
  outer loop
    vertex 116.75076286525369 63.37334836719622 91.99999999999997
    vertex 109.55076286525369 63.37334836719622 0.0
    vertex 116.75076286525369 63.37334836719622 0.0
  endloop
endfacet
facet normal -0.0 -0.9999999999999999 -0.0
  outer loop
    vertex 109.55076286525369 63.37334836719622 0.0
    vertex 116.75076286525369 63.37334836719622 91.99999999999997
    vertex 109.55076286525369 63.37334836719622 91.99999999999997
  endloop
endfacet
facet normal -1.0 0.0 0.0
  outer loop
    vertex 109.55076286525369 74.17334836719623 91.99999999999997
    vertex 109.55076286525369 63.37334836719622 0.0
    vertex 109.55076286525369 63.37334836719622 91.99999999999997
  endloop
endfacet
facet normal -1.0 0.0 0.0
  outer loop
    vertex 109.55076286525369 63.37334836719622 0.0
    vertex 109.55076286525369 74.17334836719623 91.99999999999997
    vertex 109.55076286525369 74.17334836719623 0.0
  endloop
endfacet
facet normal -0.0 -0.9999999999999999 -0.0
  outer loop
    vertex 98.7507628652537 84.9733483671962 91.99999999999997
    vertex 87.95076286525374 84.9733483671962 0.0
    vertex 98.7507628652537 84.9733483671962 0.0
  endloop
endfacet
facet normal -0.0 -0.9999999999999999 -0.0
  outer loop
    vertex 87.95076286525374 84.9733483671962 0.0
    vertex 98.7507628652537 84.9733483671962 91.99999999999997
    vertex 87.95076286525374 84.9733483671962 91.99999999999997
  endloop
endfacet
facet normal -1.0 0.0 0.0
  outer loop
    vertex 87.95076286525374 95.77334836719625 91.99999999999997
    vertex 87.95076286525374 84.9733483671962 0.0
    vertex 87.95076286525374 84.9733483671962 91.99999999999997
  endloop
endfacet
facet normal -1.0 0.0 0.0
  outer loop
    vertex 87.95076286525374 84.9733483671962 0.0
    vertex 87.95076286525374 95.77334836719625 91.99999999999997
    vertex 87.95076286525374 95.77334836719625 0.0
  endloop
endfacet
facet normal -0.0 -1.0 -0.0
  outer loop
    vertex 87.95076286525374 95.77334836719625 91.99999999999997
    vertex 77.1507628652537 95.77334836719625 0.0
    vertex 87.95076286525374 95.77334836719625 0.0
  endloop
endfacet
facet normal -0.0 -1.0 -0.0
  outer loop
    vertex 77.1507628652537 95.77334836719625 0.0
    vertex 87.95076286525374 95.77334836719625 91.99999999999997
    vertex 77.1507628652537 95.77334836719625 91.99999999999997
  endloop
endfacet
facet normal -1.0 0.0 0.0
  outer loop
    vertex 77.1507628652537 106.57334836719623 91.99999999999997
    vertex 77.1507628652537 95.77334836719625 0.0
    vertex 77.1507628652537 95.77334836719625 91.99999999999997
  endloop
endfacet
facet normal -1.0 0.0 0.0
  outer loop
    vertex 77.1507628652537 95.77334836719625 0.0
    vertex 77.1507628652537 106.57334836719623 91.99999999999997
    vertex 77.1507628652537 106.57334836719623 0.0
  endloop
endfacet
facet normal 0.0 0.0 -1.0
  outer loop
    vertex 84.35076286525376 113.7733483671962 0.0
    vertex 66.35076286525374 106.57334836719623 0.0
    vertex 66.35076286525374 113.7733483671962 0.0
  endloop
endfacet
facet normal 0.0 0.0 -1.0
  outer loop
    vertex 66.35076286525374 106.57334836719623 0.0
    vertex 84.35076286525376 113.7733483671962 0.0
    vertex 77.1507628652537 106.57334836719623 0.0
  endloop
endfacet
facet normal 0.0 0.0 -1.0
  outer loop
    vertex 77.1507628652537 106.57334836719623 0.0
    vertex 84.35076286525376 113.7733483671962 0.0
    vertex 77.1507628652537 95.77334836719625 0.0
  endloop
endfacet
facet normal 0.0 0.0 -1.0
  outer loop
    vertex 77.1507628652537 95.77334836719625 0.0
    vertex 84.35076286525376 113.7733483671962 0.0
    vertex 84.35076286525376 102.97334836719622 0.0
  endloop
endfacet
facet normal 0.0 0.0 -1.0
  outer loop
    vertex 77.1507628652537 95.77334836719625 0.0
    vertex 84.35076286525376 102.97334836719622 0.0
    vertex 87.95076286525374 95.77334836719625 0.0
  endloop
endfacet
facet normal 0.0 0.0 -1.0
  outer loop
    vertex 87.95076286525374 95.77334836719625 0.0
    vertex 84.35076286525376 102.97334836719622 0.0
    vertex 95.15076286525372 102.97334836719622 0.0
  endloop
endfacet
facet normal 0.0 0.0 -1.0
  outer loop
    vertex 87.95076286525374 95.77334836719625 0.0
    vertex 95.15076286525372 102.97334836719622 0.0
    vertex 87.95076286525374 84.9733483671962 0.0
  endloop
endfacet
facet normal 0.0 0.0 -1.0
  outer loop
    vertex 87.95076286525374 84.9733483671962 0.0
    vertex 95.15076286525372 102.97334836719622 0.0
    vertex 95.15076286525372 92.17334836719623 0.0
  endloop
endfacet
facet normal 0.0 0.0 -1.0
  outer loop
    vertex 87.95076286525374 84.9733483671962 0.0
    vertex 95.15076286525372 92.17334836719623 0.0
    vertex 98.7507628652537 84.9733483671962 0.0
  endloop
endfacet
facet normal 0.0 0.0 -1.0
  outer loop
    vertex 98.7507628652537 84.9733483671962 0.0
    vertex 95.15076286525372 92.17334836719623 0.0
    vertex 105.9507628652537 92.17334836719623 0.0
  endloop
endfacet
facet normal 0.0 0.0 -1.0
  outer loop
    vertex 98.7507628652537 84.9733483671962 0.0
    vertex 105.9507628652537 92.17334836719623 0.0
    vertex 98.7507628652537 74.17334836719623 0.0
  endloop
endfacet
facet normal 0.0 0.0 -1.0
  outer loop
    vertex 98.7507628652537 74.17334836719623 0.0
    vertex 105.9507628652537 92.17334836719623 0.0
    vertex 105.9507628652537 81.37334836719624 0.0
  endloop
endfacet
facet normal 0.0 0.0 -1.0
  outer loop
    vertex 98.7507628652537 74.17334836719623 0.0
    vertex 105.9507628652537 81.37334836719624 0.0
    vertex 109.55076286525369 74.17334836719623 0.0
  endloop
endfacet
facet normal 0.0 0.0 -1.0
  outer loop
    vertex 109.55076286525369 74.17334836719623 0.0
    vertex 105.9507628652537 81.37334836719624 0.0
    vertex 116.75076286525369 81.37334836719624 0.0
  endloop
endfacet
facet normal 0.0 0.0 -1.0
  outer loop
    vertex 109.55076286525369 74.17334836719623 0.0
    vertex 116.75076286525369 81.37334836719624 0.0
    vertex 109.55076286525369 63.37334836719622 0.0
  endloop
endfacet
facet normal 0.0 0.0 -1.0
  outer loop
    vertex 109.55076286525369 63.37334836719622 0.0
    vertex 116.75076286525369 81.37334836719624 0.0
    vertex 116.75076286525369 63.37334836719622 0.0
  endloop
endfacet
facet normal 0.0 0.0 1.0
  outer loop
    vertex 116.75076286525369 63.37334836719622 91.99999999999997
    vertex 109.55076286525369 74.17334836719623 91.99999999999997
    vertex 109.55076286525369 63.37334836719622 91.99999999999997
  endloop
endfacet
facet normal 0.0 0.0 1.0
  outer loop
    vertex 109.55076286525369 74.17334836719623 91.99999999999997
    vertex 98.7507628652537 84.9733483671962 91.99999999999997
    vertex 98.7507628652537 74.17334836719623 91.99999999999997
  endloop
endfacet
facet normal 0.0 0.0 1.0
  outer loop
    vertex 98.7507628652537 84.9733483671962 91.99999999999997
    vertex 109.55076286525369 74.17334836719623 91.99999999999997
    vertex 105.9507628652537 81.37334836719624 91.99999999999997
  endloop
endfacet
facet normal 0.0 0.0 1.0
  outer loop
    vertex 105.9507628652537 81.37334836719624 91.99999999999997
    vertex 109.55076286525369 74.17334836719623 91.99999999999997
    vertex 116.75076286525369 81.37334836719624 91.99999999999997
  endloop
endfacet
facet normal 0.0 0.0 1.0
  outer loop
    vertex 116.75076286525369 81.37334836719624 91.99999999999997
    vertex 109.55076286525369 74.17334836719623 91.99999999999997
    vertex 116.75076286525369 63.37334836719622 91.99999999999997
  endloop
endfacet
facet normal 0.0 0.0 1.0
  outer loop
    vertex 98.7507628652537 84.9733483671962 91.99999999999997
    vertex 87.95076286525374 95.77334836719625 91.99999999999997
    vertex 87.95076286525374 84.9733483671962 91.99999999999997
  endloop
endfacet
facet normal 0.0 0.0 1.0
  outer loop
    vertex 87.95076286525374 95.77334836719625 91.99999999999997
    vertex 98.7507628652537 84.9733483671962 91.99999999999997
    vertex 95.15076286525372 92.17334836719623 91.99999999999997
  endloop
endfacet
facet normal 0.0 0.0 1.0
  outer loop
    vertex 95.15076286525372 92.17334836719623 91.99999999999997
    vertex 98.7507628652537 84.9733483671962 91.99999999999997
    vertex 105.9507628652537 92.17334836719623 91.99999999999997
  endloop
endfacet
facet normal 0.0 0.0 1.0
  outer loop
    vertex 105.9507628652537 92.17334836719623 91.99999999999997
    vertex 98.7507628652537 84.9733483671962 91.99999999999997
    vertex 105.9507628652537 81.37334836719624 91.99999999999997
  endloop
endfacet
facet normal 0.0 0.0 1.0
  outer loop
    vertex 87.95076286525374 95.77334836719625 91.99999999999997
    vertex 77.1507628652537 106.57334836719623 91.99999999999997
    vertex 77.1507628652537 95.77334836719625 91.99999999999997
  endloop
endfacet
facet normal 0.0 0.0 1.0
  outer loop
    vertex 77.1507628652537 106.57334836719623 91.99999999999997
    vertex 87.95076286525374 95.77334836719625 91.99999999999997
    vertex 84.35076286525376 102.97334836719622 91.99999999999997
  endloop
endfacet
facet normal 0.0 0.0 1.0
  outer loop
    vertex 84.35076286525376 102.97334836719622 91.99999999999997
    vertex 87.95076286525374 95.77334836719625 91.99999999999997
    vertex 95.15076286525372 102.97334836719622 91.99999999999997
  endloop
endfacet
facet normal 0.0 0.0 1.0
  outer loop
    vertex 95.15076286525372 102.97334836719622 91.99999999999997
    vertex 87.95076286525374 95.77334836719625 91.99999999999997
    vertex 95.15076286525372 92.17334836719623 91.99999999999997
  endloop
endfacet
facet normal 0.0 0.0 1.0
  outer loop
    vertex 77.1507628652537 106.57334836719623 91.99999999999997
    vertex 66.35076286525374 113.7733483671962 91.99999999999997
    vertex 66.35076286525374 106.57334836719623 91.99999999999997
  endloop
endfacet
facet normal 0.0 0.0 1.0
  outer loop
    vertex 66.35076286525374 113.7733483671962 91.99999999999997
    vertex 77.1507628652537 106.57334836719623 91.99999999999997
    vertex 84.35076286525376 113.7733483671962 91.99999999999997
  endloop
endfacet
facet normal 0.0 0.0 1.0
  outer loop
    vertex 84.35076286525376 113.7733483671962 91.99999999999997
    vertex 77.1507628652537 106.57334836719623 91.99999999999997
    vertex 84.35076286525376 102.97334836719622 91.99999999999997
  endloop
endfacet
endsolid soap-dish
